REM DIRINDEX 1\2,1\3,1\4
REM DIRNAME cjc151,folder01,folder02,folder03
TITLE ""
FILE "176 176_TOEFL_3900.mp3" MP3
  TRACK 01 AUDIO
    TITLE "2:cjc151_7676"
    INDEX 01 00:00:00
  TRACK 02 AUDIO
    TITLE "0:"
    INDEX 01 00:01:58
  TRACK 03 AUDIO
    TITLE "3:cjc151_7677"
    INDEX 01 00:03:39
  TRACK 04 AUDIO
    TITLE "0:"
    INDEX 01 00:08:30
  TRACK 05 AUDIO
    TITLE "2:cjc151_7678"
    INDEX 01 00:10:10
  TRACK 06 AUDIO
    TITLE "0:"
    INDEX 01 00:11:33
  TRACK 07 AUDIO
    TITLE "3:cjc151_7679"
    INDEX 01 00:13:10
  TRACK 08 AUDIO
    TITLE "0:"
    INDEX 01 00:17:51
  TRACK 09 AUDIO
    TITLE "2:cjc151_7680"
    INDEX 01 00:19:20
  TRACK 10 AUDIO
    TITLE "0:"
    INDEX 01 00:20:67
  TRACK 11 AUDIO
    TITLE "3:cjc151_7681"
    INDEX 01 00:22:46
  TRACK 12 AUDIO
    TITLE "0:"
    INDEX 01 00:27:16
  TRACK 13 AUDIO
    TITLE "2:cjc151_7682"
    INDEX 01 00:28:70
  TRACK 14 AUDIO
    TITLE "0:"
    INDEX 01 00:30:14
  TRACK 15 AUDIO
    TITLE "3:cjc151_7683"
    INDEX 01 00:31:69
  TRACK 16 AUDIO
    TITLE "0:"
    INDEX 01 00:36:72
  TRACK 17 AUDIO
    TITLE "2:cjc151_7684"
    INDEX 01 00:38:51
  TRACK 18 AUDIO
    TITLE "0:"
    INDEX 01 00:40:28
  TRACK 19 AUDIO
    TITLE "3:cjc151_7685"
    INDEX 01 00:42:06
  TRACK 20 AUDIO
    TITLE "0:"
    INDEX 01 00:46:47
  TRACK 21 AUDIO
    TITLE "2:cjc151_7686"
    INDEX 01 00:48:24
  TRACK 22 AUDIO
    TITLE "0:"
    INDEX 01 00:49:53
  TRACK 23 AUDIO
    TITLE "3:cjc151_7687"
    INDEX 01 00:51:34
  TRACK 24 AUDIO
    TITLE "0:"
    INDEX 01 00:56:10
  TRACK 25 AUDIO
    TITLE "2:cjc151_7688"
    INDEX 01 00:57:64
  TRACK 26 AUDIO
    TITLE "0:"
    INDEX 01 00:59:04
  TRACK 27 AUDIO
    TITLE "3:cjc151_7689"
    INDEX 01 01:00:59
  TRACK 28 AUDIO
    TITLE "0:"
    INDEX 01 01:06:02
  TRACK 29 AUDIO
    TITLE "2:cjc151_7690"
    INDEX 01 01:07:63
  TRACK 30 AUDIO
    TITLE "0:"
    INDEX 01 01:09:12
  TRACK 31 AUDIO
    TITLE "3:cjc151_7691"
    INDEX 01 01:10:67
  TRACK 32 AUDIO
    TITLE "0:"
    INDEX 01 01:15:17
  TRACK 33 AUDIO
    TITLE "2:cjc151_7692"
    INDEX 01 01:16:73
  TRACK 34 AUDIO
    TITLE "0:"
    INDEX 01 01:18:13
  TRACK 35 AUDIO
    TITLE "3:cjc151_7693"
    INDEX 01 01:19:66
  TRACK 36 AUDIO
    TITLE "0:"
    INDEX 01 01:24:45
  TRACK 37 AUDIO
    TITLE "2:cjc151_7694"
    INDEX 01 01:26:25
  TRACK 38 AUDIO
    TITLE "0:"
    INDEX 01 01:27:55
  TRACK 39 AUDIO
    TITLE "3:cjc151_7695"
    INDEX 01 01:29:33
  TRACK 40 AUDIO
    TITLE "0:"
    INDEX 01 01:34:48
  TRACK 41 AUDIO
    TITLE "2:cjc151_7696"
    INDEX 01 01:36:27
  TRACK 42 AUDIO
    TITLE "0:"
    INDEX 01 01:38:08
  TRACK 43 AUDIO
    TITLE "3:cjc151_7697"
    INDEX 01 01:39:64
  TRACK 44 AUDIO
    TITLE "0:"
    INDEX 01 01:45:00
  TRACK 45 AUDIO
    TITLE "2:cjc151_7698"
    INDEX 01 01:46:53
  TRACK 46 AUDIO
    TITLE "0:"
    INDEX 01 01:48:60
  TRACK 47 AUDIO
    TITLE "3:cjc151_7699"
    INDEX 01 01:50:41
  TRACK 48 AUDIO
    TITLE "0:"
    INDEX 01 01:55:50
  TRACK 49 AUDIO
    TITLE "2:cjc151_7700"
    INDEX 01 01:57:27
  TRACK 50 AUDIO
    TITLE "0:"
    INDEX 01 01:58:34
  TRACK 51 AUDIO
    TITLE "3:cjc151_7701"
    INDEX 01 02:00:10
  TRACK 52 AUDIO
    TITLE "0:"
    INDEX 01 02:05:03
  TRACK 53 AUDIO
    TITLE "2:cjc151_7702"
    INDEX 01 02:06:55
  TRACK 54 AUDIO
    TITLE "0:"
    INDEX 01 02:08:03
  TRACK 55 AUDIO
    TITLE "3:cjc151_7703"
    INDEX 01 02:09:56
  TRACK 56 AUDIO
    TITLE "0:"
    INDEX 01 02:14:04
  TRACK 57 AUDIO
    TITLE "2:cjc151_7704"
    INDEX 01 02:15:58
  TRACK 58 AUDIO
    TITLE "0:"
    INDEX 01 02:17:06
  TRACK 59 AUDIO
    TITLE "3:cjc151_7705"
    INDEX 01 02:18:63
  TRACK 60 AUDIO
    TITLE "0:"
    INDEX 01 02:22:00
  TRACK 61 AUDIO
    TITLE "2:cjc151_7706"
    INDEX 01 02:23:52
  TRACK 62 AUDIO
    TITLE "0:"
    INDEX 01 02:25:12
  TRACK 63 AUDIO
    TITLE "3:cjc151_7707"
    INDEX 01 02:26:64
  TRACK 64 AUDIO
    TITLE "0:"
    INDEX 01 02:30:48
  TRACK 65 AUDIO
    TITLE "2:cjc151_7708"
    INDEX 01 02:32:33
  TRACK 66 AUDIO
    TITLE "0:"
    INDEX 01 02:34:09
  TRACK 67 AUDIO
    TITLE "3:cjc151_7709"
    INDEX 01 02:35:63
  TRACK 68 AUDIO
    TITLE "0:"
    INDEX 01 02:39:37
  TRACK 69 AUDIO
    TITLE "2:cjc151_7710"
    INDEX 01 02:41:21
  TRACK 70 AUDIO
    TITLE "0:"
    INDEX 01 02:42:42
  TRACK 71 AUDIO
    TITLE "3:cjc151_7711"
    INDEX 01 02:44:21
  TRACK 72 AUDIO
    TITLE "0:"
    INDEX 01 02:47:62
  TRACK 73 AUDIO
    TITLE "2:cjc151_7712"
    INDEX 01 02:49:42
  TRACK 74 AUDIO
    TITLE "0:"
    INDEX 01 02:50:55
  TRACK 75 AUDIO
    TITLE "3:cjc151_7713"
    INDEX 01 02:52:46
  TRACK 76 AUDIO
    TITLE "0:"
    INDEX 01 02:56:22
  TRACK 77 AUDIO
    TITLE "2:cjc151_7714"
    INDEX 01 02:58:03
  TRACK 78 AUDIO
    TITLE "0:"
    INDEX 01 02:59:13
  TRACK 79 AUDIO
    TITLE "3:cjc151_7715"
    INDEX 01 03:00:65
  TRACK 80 AUDIO
    TITLE "0:"
    INDEX 01 03:05:07
  TRACK 81 AUDIO
    TITLE "2:cjc151_7716"
    INDEX 01 03:06:62
  TRACK 82 AUDIO
    TITLE "0:"
    INDEX 01 03:07:73
  TRACK 83 AUDIO
    TITLE "3:cjc151_7717"
    INDEX 01 03:09:46
  TRACK 84 AUDIO
    TITLE "0:"
    INDEX 01 03:15:12
  TRACK 85 AUDIO
    TITLE "2:cjc151_7718"
    INDEX 01 03:16:68
  TRACK 86 AUDIO
    TITLE "0:"
    INDEX 01 03:18:14
  TRACK 87 AUDIO
    TITLE "3:cjc151_7719"
    INDEX 01 03:19:68
  TRACK 88 AUDIO
    TITLE "0:"
    INDEX 01 03:24:44
